# xmcd
#
# Track frame offsets:
#	150
#	10555
#	25435
#	39270
#	52798
#	65248
#	78658
#	91332
#	104564
#	118891
#	131488
#	144763
#	158926
#	170602
#	183525
#	195693
#	207756
#	221046
#	232591
#	245937
#	259707
#	272580
#	285395
#	297985
#
# Disc length: 4135 seconds
#
# Revision: 1
# Processed by: cddbd v1.5.2PL0 Copyright (c) Steve Scherf et al.
# Submitted via: audiograbber 1.83.01
#
DISCID=5e102518
DTITLE=The Greatest Country Music Recordings Of All Time - Record 93 and 94
DYEAR=1900
DGENRE=
TTITLE0=Harry McClintoc - Big Rock Candy Mountain
TTITLE1=Darby and Tarlton - Birmingham Jail
TTITLE2=Pickard Family - Little Red Caboose
TTITLE3=Bradley Kincaid - The Letter Edged In Black
TTITLE4=Mainer's Mountaineers - Maple On The Hill
TTITLE5=Riley Puckett and Hugh Cross - Red River Valley
TTITLE6=Gene Autry and Jimmy Long - Silver Haired Daddy Of Mine
TTITLE7=Bud and Joe Billings - Colombus Stockade  Blues
TTITLE8=Bob Miller - Seven Years With The Wrong Woman
TTITLE9=Jimmie Davis - Nobody's Darling But Mine
TTITLE10=Cumberland Ridge Runners - I'm Here To Get My Baby Out Of Jail
TTITLE11=Mae and Bob - Twenty One Years
TTITLE12=Eddy Arnold - Bouquet Of Roses
TTITLE13=T. Texas Tyler - Remember Me
TTITLE14=Floyd Tillman - I'll Never Slip Around Again
TTITLE15=Moon Mullican - Sweeter Than The Flowers
TTITLE16=Tex Ritter - Jealous Heart
TTITLE17=Wiley Walker and Gene Sullivan - When My Blue Moon Turns To Gold Again
TTITLE18=Jimmy Dickens - Hillbilly Fever
TTITLE19=Kenny Roberts - I Never See Maggie Alone
TTITLE20=Carson Robinson - Life Get's Tee-Jus, Don't It
TTITLE21=Grandpa Jones - Old Rattler
TTITLE22=George Morgan - Room Full Of Roses
TTITLE23=Elton Britt - There's A Star Spangled Banner Waving Somewhere
EXTD=
EXTT0=
EXTT1=
EXTT2=
EXTT3=
EXTT4=
EXTT5=
EXTT6=
EXTT7=
EXTT8=
EXTT9=
EXTT10=
EXTT11=
EXTT12=
EXTT13=
EXTT14=
EXTT15=
EXTT16=
EXTT17=
EXTT18=
EXTT19=
EXTT20=
EXTT21=
EXTT22=
EXTT23=
PLAYORDER=
